<?xml version="1.0" encoding="utf-8"?>
<!-- Generator: Adobe Illustrator 16.0.0, SVG Export Plug-In . SVG Version: 6.00 Build 0)  -->
<!DOCTYPE svg PUBLIC "-//W3C//DTD SVG 1.1//EN" "http://www.w3.org/Graphics/SVG/1.1/DTD/svg11.dtd">
<svg version="1.1" id="Layer_1" xmlns="http://www.w3.org/2000/svg" xmlns:xlink="http://www.w3.org/1999/xlink" x="0px" y="0px"
	 width="226.77px" height="226.77px" viewBox="0 0 226.77 226.77" enable-background="new 0 0 226.77 226.77" xml:space="preserve">
<path fill="#F7CF2A" d="M201.891,38.654c0,0-69.436-60.919-133.63,0c-26.525,25.172-38.075,68.267-28.199,103.217
	c12.697,44.936,55.458,67.077,100.407,62.537c7.834-0.791,15.491-2.672,22.929-5.228c6.863-2.356,16.412-9.389,23.421-9.866
	c-75.074,5.11-126.982-105.049-52.114-143.136C152.636,37.057,182.408,34.923,201.891,38.654z"/>
<path fill="none" stroke="#FCF6E6" stroke-width="4" stroke-miterlimit="10" d="M191.155,38.654c0,0-69.436-60.919-133.63,0
	C31,63.826,19.451,106.921,29.327,141.871c12.696,44.936,55.457,67.077,100.403,62.537c7.838-0.791,15.495-2.672,22.933-5.228
	c6.863-2.356,16.416-9.393,23.425-9.866c-0.042,0.002-87.12,5.87-88.43-87.121C87.657,102.193,98.794,20.967,191.155,38.654z"/>
<path fill="none" stroke="#FCF6E6" stroke-width="2" stroke-miterlimit="10" d="M191.155,48.854c0,0-69.436-60.919-133.63,0
	C31,74.027,19.451,117.123,29.327,152.073c12.696,44.933,55.457,67.077,100.403,62.536c7.838-0.79,15.495-2.671,22.933-5.228
	c6.863-2.358,16.416-9.394,23.425-9.867c-0.042,0.004-87.12,5.872-88.43-87.121C87.657,112.394,98.794,31.168,191.155,48.854z"/>
</svg>
